<svg xmlns="http://www.w3.org/2000/svg" xmlns:xlink="http://www.w3.org/1999/xlink" version="1.1" id="Layer_1" x="0px" y="0px" viewBox="0 0 215 64" style="enable-background:new 0 0 215 64;" xml:space="preserve" width="215"  height="64" >
<style type="text/css">
	.st0{clip-path:url(#SVGID_2_);}
	.st1{clip-path:url(#SVGID_4_);fill:#FFFFFF;}
	.st2{clip-path:url(#SVGID_6_);}
	.st3{clip-path:url(#SVGID_8_);fill:#FFFFFF;}
	.st4{clip-path:url(#SVGID_10_);}
	.st5{clip-path:url(#SVGID_12_);fill:#FFFFFF;}
	.st6{clip-path:url(#SVGID_14_);}
	.st7{clip-path:url(#SVGID_16_);fill:#FFFFFF;}
	.st8{clip-path:url(#SVGID_18_);}
	.st9{clip-path:url(#SVGID_20_);fill:#FFFFFF;}
</style>
<g>
	<defs>
		<path id="SVGID_1_" d="M76.3,54H79l1.8-2.1h-2.3l-0.9,1h-0.1l-0.9-1h-2.3L76.3,54z M77.7,63.8c1.1,0,2-0.3,2.5-0.6V61    c-0.5,0.3-1.1,0.5-2.1,0.5c-1,0-2.3-0.7-2.3-2.4s1.3-2.4,2.5-2.4c0.8,0,1.4,0.2,1.9,0.4v-2.3c-0.5-0.2-1.2-0.4-2.3-0.4    c-2.7,0-5,1.8-5,4.7C73,62,75,63.8,77.7,63.8 M84,63.7h3.6l2.7-9.1h-2.9l-1.6,6.8h-0.1l-1.6-6.8h-2.9L84,63.7z M95.9,63.9    c2.1,0,3.9-1,3.9-3.6v-5.7h-2.6v5.5c0,1-0.6,1.5-1.3,1.5c-0.7,0-1.3-0.5-1.3-1.5v-5.5H92v5.7C92,62.8,93.8,63.9,95.9,63.9     M103.7,63.7h2.6v-7h2.3v-2.1h-7.2v2.1h2.3L103.7,63.7L103.7,63.7z M115.1,63.7h3.6l2.7-9.1h-2.9l-1.6,6.8h-0.1l-1.6-6.8h-2.9    L115.1,63.7z M126.4,63.7h2.6v-2.9h1.3c2.1,0,3.5-1.4,3.5-3c0-1.7-1.3-3.1-3.5-3.1h-4V63.7z M129,58.8v-2.3h1    c0.6,0,1.1,0.5,1.1,1.1c0,0.7-0.5,1.1-1.1,1.1H129z M135.8,63.7h2.6v-3.2h0.7l1.6,3.2h3l-1.7-2.8c-0.2-0.3-0.4-0.6-0.5-0.6l0-0.1    c0.8-0.4,1.9-1,1.9-2.6c0-1.6-1.3-3-3.4-3h-4.2L135.8,63.7L135.8,63.7z M138.4,58.8v-2.3h1.1c0.7,0,1.1,0.5,1.1,1.1    c0,0.6-0.4,1.1-1.1,1.1H138.4z M150.7,63.7h2.7l-2.7-9.1h-3.8l-2.7,9.1h2.7l0.5-1.9h2.9L150.7,63.7z M147.8,59.9l0.9-3.4h0.1    l0.9,3.4H147.8z M154.2,63.7h7.2v-2.1h-3.9l3.9-5.1v-1.9h-7v2.1h3.7l-3.8,5V63.7z M163.3,63.7h6.3v-2.1H166v-1.5h3.5v-2H166v-1.5    h3.7v-2.1h-6.3V63.7z"/>
	</defs>
	<clipPath id="SVGID_2_">
		<use xlink:href="#SVGID_1_" style="overflow:visible;"/>
	</clipPath>
	<g class="st0">
		<defs>
			<rect id="SVGID_3_" x="-152" y="-27" width="1600" height="4433"/>
		</defs>
		<clipPath id="SVGID_4_">
			<use xlink:href="#SVGID_3_" style="overflow:visible;"/>
		</clipPath>
		<rect x="72" y="50.9" class="st1" width="98.7" height="13.9"/>
	</g>
</g>
<g>
	<defs>
		<path id="SVGID_5_" d="M73.5,50h6.3v-2.1h-3.7v-1.5h3.5v-2h-3.5V43h3.7v-2.1h-6.3V50z M82.2,50H88v-2.2h-3.3v-6.9h-2.6V50z     M89.4,50h6.3v-2.1H92v-1.5h3.5v-2H92V43h3.7v-2.1h-6.3V50z M106.5,50l-3.1-4.7l3-4.4h-3.2l-2.5,4.2v-4.2h-2.6V50h2.6v-4.4    l2.6,4.4H106.5z M109.1,50h2.6v-7h2.3v-2.1h-7.2V43h2.3L109.1,50L109.1,50z M115.7,50h2.6v-3.2h0.7l1.6,3.2h3l-1.7-2.8    c-0.2-0.3-0.4-0.6-0.5-0.6l0-0.1c0.8-0.4,1.9-1,1.9-2.6c0-1.6-1.3-3-3.4-3h-4.2L115.7,50L115.7,50z M118.3,45.1v-2.3h1.1    c0.7,0,1.1,0.5,1.1,1.1c0,0.6-0.4,1.1-1.1,1.1H118.3z M129.5,50.2c2.7,0,4.5-1.7,4.5-4.8s-1.8-4.8-4.5-4.8c-2.7,0-4.6,1.7-4.6,4.8    S126.8,50.2,129.5,50.2 M129.5,47.9c-1.2,0-1.8-0.9-1.8-2.4c0-1.5,0.6-2.4,1.8-2.4c1.2,0,1.7,0.9,1.7,2.4    C131.2,47,130.6,47.9,129.5,47.9 M137.2,50h2.6v-7h2.3v-2.1h-7.2V43h2.3L137.2,50L137.2,50z M143.8,50h6.3v-2.1h-3.7v-1.5h3.5v-2    h-3.5V43h3.7v-2.1h-6.3V50z M156.7,50.2c1.1,0,2-0.3,2.5-0.6v-2.3c-0.5,0.3-1.1,0.5-2.1,0.5c-1,0-2.3-0.7-2.3-2.4    c0-1.6,1.3-2.4,2.5-2.4c0.8,0,1.4,0.2,1.9,0.4v-2.3c-0.5-0.2-1.2-0.4-2.3-0.4c-2.7,0-5,1.8-5,4.7C151.9,48.4,154,50.2,156.7,50.2     M161.2,40.9V50h2.6v-3.6h2.7V50h2.6v-9.1h-2.6v3.5h-2.7v-3.5H161.2z M171.8,50h2.6v-5.5h0l2.8,5.5h3.2v-9.1h-2.6v5.4h0l-2.7-5.4    h-3.2V50z M183.1,50h2.6v-9.1h-2.6V50z M192.6,50.2c1.1,0,2-0.3,2.5-0.6v-2.3c-0.5,0.3-1.1,0.5-2.1,0.5c-0.9,0-2.3-0.7-2.3-2.4    c0-1.6,1.3-2.4,2.5-2.4c0.8,0,1.4,0.2,1.9,0.4v-2.3c-0.5-0.2-1.2-0.4-2.3-0.4c-2.7,0-5,1.8-5,4.7    C187.9,48.4,189.9,50.2,192.6,50.2 M205.5,50l-3.1-4.7l3-4.4h-3.2l-2.5,4.2v-4.2h-2.6V50h2.6v-4.4l2.6,4.4H205.5z M212.8,38.3    h-3.1l-1.1,2.1h2.2L212.8,38.3z M212,50h2.7l-2.7-9.1h-3.8l-2.7,9.1h2.7l0.5-1.9h2.9L212,50z M209.1,46.3l0.9-3.4h0.1l0.9,3.4    H209.1z"/>
	</defs>
	<clipPath id="SVGID_6_">
		<use xlink:href="#SVGID_5_" style="overflow:visible;"/>
	</clipPath>
	<g class="st2">
		<defs>
			<rect id="SVGID_7_" x="-152" y="-27" width="1600" height="4433"/>
		</defs>
		<clipPath id="SVGID_8_">
			<use xlink:href="#SVGID_7_" style="overflow:visible;"/>
		</clipPath>
		<rect x="72.5" y="37.3" class="st3" width="143.2" height="13.9"/>
	</g>
</g>
<g>
	<defs>
		<path id="SVGID_9_" d="M73.5,27.3v9.1h2.6v-3.5h3.6v-2h-3.6v-1.5h3.6v-2.1H73.5z M86.9,36.4h2.7l-2.7-9.1H83l-2.7,9.1H83l0.5-1.9    h2.9L86.9,36.4z M84,32.6l0.9-3.4H85l0.9,3.4H84z M99.4,36.4l-3.1-4.7l3-4.4h-3.2l-2.5,4.2v-4.2H91v9.1h2.6V32l2.6,4.4H99.4z     M104.6,36.6c2.1,0,3.9-1,3.9-3.6v-5.7h-2.6v5.5c0,1-0.6,1.5-1.3,1.5c-0.7,0-1.3-0.5-1.3-1.5v-5.5h-2.6V33    C100.6,35.6,102.4,36.6,104.6,36.6 M111.1,36.4h5.9v-2.2h-3.3v-7h-2.6V36.4z M119.1,36.4h2.6v-7h2.3v-2.1h-7.2v2.1h2.3L119.1,36.4    L119.1,36.4z M130.6,36.4h2.7l-2.7-9.1h-3.8l-2.7,9.1h2.7l0.5-1.9h2.9L130.6,36.4z M127.7,32.6l0.9-3.4h0.1l0.9,3.4H127.7z"/>
	</defs>
	<clipPath id="SVGID_10_">
		<use xlink:href="#SVGID_9_" style="overflow:visible;"/>
	</clipPath>
	<g class="st4">
		<defs>
			<rect id="SVGID_11_" x="-152" y="-27" width="1600" height="4433"/>
		</defs>
		<clipPath id="SVGID_12_">
			<use xlink:href="#SVGID_11_" style="overflow:visible;"/>
		</clipPath>
		<rect x="72.5" y="26.3" class="st5" width="61.8" height="11.3"/>
	</g>
</g>
<g>
	<defs>
		<path id="SVGID_13_" d="M0.6,63H63V0.6H0.6V63z M63.7,63.7H0V0h63.7V63.7z"/>
	</defs>
	<clipPath id="SVGID_14_">
		<use xlink:href="#SVGID_13_" style="overflow:visible;"/>
	</clipPath>
	<g class="st6">
		<defs>
			<rect id="SVGID_15_" x="-152" y="-27" width="1600" height="4433"/>
		</defs>
		<clipPath id="SVGID_16_">
			<use xlink:href="#SVGID_15_" style="overflow:visible;"/>
		</clipPath>
		<rect x="-1" y="-1" class="st7" width="65.7" height="65.7"/>
	</g>
</g>
<g>
	<defs>
		<path id="SVGID_17_" d="M44.3,59.4C44.1,59.2,44,59,44,58.7c0-0.5,0.4-0.9,1.1-0.9c1,0,1.5,1.1,2.8,1.1c1.5,0,2.2-1.1,3.5-1.1    c0.7,0,1.6,0.4,1.6,1.2c0,0.1,0,0.3-0.1,0.4c1.5,0,2.6-1.3,2.6-3.4c0-2.8-0.3-5.9-0.6-9.1c0.8-0.2,1.5-1,1.5-2    c0-0.4-0.1-0.8-0.4-1.1c-0.2,0.3-0.6,0.6-1.3,0.8c-0.9,0.3-2.1,0.4-2.9,0.4c-1.9,0-2.5-0.1-3.4-0.4c0-1.2-0.8-2.2-1.5-2.8    c1.1,0.4,1.6,0.7,3.3,0.7c5.6,0,9.1-3.8,9.1-8.1c0-3.1-2-4.6-3.8-5.6l-1.7,1.2c2,0.9,3.3,2.3,3.3,4.1c0,2-1.6,3.5-3.5,3.5    c-2,0-3.6-1.5-3.6-3.4c0-1.5,0.7-2.6,2-3.7c1.3-1.1,3.3-2.3,4.5-3.5c0.6-0.6,1.1-1.6,1-2.3c0.7-0.4,1.3-1.1,1.3-2.1    c0-1.3-1.2-2.2-2.6-2.2c-0.8,0-1.7,0.5-2.1,1c0.8,0.3,1.5,1.4,1.5,2.5c0,0.9-0.6,1.7-1.2,2.4c-1,1-2.3,1.8-3.8,3    c-1.8,1.5-2.8,3.2-2.8,5.1c0,2.7,2.1,5.2,5.3,5.2c1.1,0,1.9-0.2,2.5-0.6c-1.1,1.2-3,1.9-5.1,1.9c-1.8,0-3-0.3-4.4-1.2    c-1.2-0.9-2.1-3-2.1-4.5c-1,0.6-2.1,1.1-3.1,1.5c-1.4,0.7-1.8,1.4-1.8,2.6c0,1.6,1.1,2.8,1.6,3.7c0.7,1.2,0.9,2.2,1,3.3    c0.3,2.7,1.8,3.9,4.5,3.9c1.2,0,2.9-0.1,3.5-0.2c0.3,1.2,0.6,2.7,0.6,3.8c0,0.7-0.2,0.9-0.6,1c-0.4,0.1-1.3,0.2-1.9,0.1    c-0.3,0-0.6-0.3-0.7-0.9c-0.2-0.9-0.9-1.9-2.2-1.9c-1.2,0-2.2,0.9-2.1,2.2c-0.6,0.4-0.8,0.9-0.8,1.5c0,0.5,0.2,1,0.4,1.2    c-0.1,0.3-0.2,0.5-0.2,0.8C42.5,58.6,43.4,59.4,44.3,59.4 M2.9,59.7l2.7-2.1l3.3-14.2l1.2-0.8l2.6-11.4l-0.6-2.6    c-0.7-0.1-1.2-0.3-1.7-0.6L2.9,59.7z M24.6,56.4c-0.3-0.3-0.7-0.6-1.3-0.6c-0.7,0-1.1,0.3-1.2,0.5c-0.1-0.5,0.4-1.2,1.2-1.2    C24.2,55.1,24.6,55.8,24.6,56.4 M21.1,58.3C21,58.1,21,57.8,21,57.5c0-0.3,0-0.5,0.1-0.7c-0.2-0.4-0.4-0.8-0.4-1.3    c0-0.7,0.3-1.3,0.7-1.7L18.8,42c-0.4-0.2-0.9-0.5-1.2-0.8c-0.6-0.5-1-0.9-1.5-1.6c-0.2-0.2-0.3-0.3-0.5-0.3    c-0.3,0-0.4,0.2-0.4,0.5l0.6,2.7l1.2,0.8l3.3,14.2L21.1,58.3z M24.9,54.5c-0.2-0.4-0.7-0.8-1.5-0.8c-0.4,0-0.7,0.1-0.8,0.2    c0-0.4,0.4-0.7,1.1-0.7C24.5,53.1,25,53.8,24.9,54.5 M17.2,37.4c-0.3-0.5-0.8-0.8-1.5-0.8c-0.3,0-0.5,0-0.7,0.1    c0.1-0.4,0.5-0.7,1.1-0.7C16.8,36,17.3,36.6,17.2,37.4 M23.4,59.4c-0.2-0.2-0.3-0.4-0.3-0.7c0-0.5,0.4-0.9,1.1-0.9    c1,0,1.5,1.1,2.8,1.1c1.5,0,2.2-1.1,3.5-1.1c0.7,0,1.6,0.4,1.6,1.2c0,0.1,0,0.3-0.1,0.4c1.5,0,2.6-1.3,2.6-3.4    c0-3-0.1-4.1-0.1-5.8c1.1,0,2.2-0.6,2.1-2.4c-0.3,0.3-0.7,0.4-1.1,0.4c-0.5,0-0.9-0.4-0.9-1c0-0.3,0-0.6,0-0.9l5.2-0.1    c-0.5-0.3-0.8-0.8-0.8-1.4c0-0.4,0.2-0.8,0.5-0.9c-0.5-1-0.9-1.8-1.4-2.6c-0.3-0.4-0.6-0.8-1.2-0.8c-1.4,0-4.1,0.4-5.6,0.8    c-1.1,0.4-2.1,1.1-2.1,3c0,1.7,0.6,4.6,0.5,9.3c0,0.7-0.2,0.9-0.6,1c-0.4,0.1-1.3,0.2-1.9,0.1c-0.3,0-0.6-0.3-0.7-0.9    c-0.2-0.9-0.9-1.9-2.2-1.9c-1.2,0-2.2,0.9-2.1,2.2c-0.6,0.4-0.8,0.9-0.8,1.5s0.2,1,0.4,1.2c-0.1,0.3-0.2,0.5-0.2,0.8    C21.6,58.6,22.6,59.4,23.4,59.4 M18.5,36.2c0-0.9-0.7-1.6-1.5-1.8c0.1-0.1,0.4-0.2,0.7-0.2c0.6,0,1.1,0.5,1.1,1.1    C18.8,35.8,18.6,36,18.5,36.2 M21,44.8c0.7,0,1.4-0.4,2-1c1.2-1.1,2.9-2.9,3.9-3.5c0.9-0.6,1.5-0.8,2-0.8c0.4,0,0.6,0.1,0.9,0.4    l1.5-1.1c-1.7-1.3-2.5-3-2.6-5c-2.4,1.3-4.1,3-6.1,4.7c-0.4,0.3-0.5,0.4-0.8,0.4c-0.3,0-0.6-0.3-1.1-0.8c-0.4-0.4-0.5-0.7-0.5-1    c0-0.5,0.2-0.7,0.2-1.4c0-1.4-1.1-2.2-2.2-2.2c-0.9,0-1.5,0.5-1.8,1.1c-1.2,0.1-1.9,1-1.9,1.9c0,0.2,0,0.4,0.1,0.5    c-0.4,0.3-0.9,0.8-0.9,1.5c0,0.7,0.4,1.5,1.1,1.7c-0.1-0.1-0.1-0.3-0.1-0.5c0-0.4,0.4-0.7,0.8-0.7c0.4,0,0.7,0.1,1,0.5    c0.4,0.5,0.8,1,1.5,1.6c0.6,0.5,1.3,0.9,2,1.3c0.4,0.3,0.7,0.6,0.7,1.1c0,0.4-0.3,0.7-0.8,0.9C20,44.6,20.5,44.8,21,44.8     M14.2,35.4c0.3-0.8,1-1.3,1.8-1.5c0.2-0.3,0.4-0.5,0.6-0.7L15.1,27c-0.2-0.4-0.3-0.9-0.3-1.5c0-0.7,0.1-1.3,0.1-1.7    c0-0.3-0.2-0.4-0.4-0.4c-0.1,0-0.2,0-0.3,0v0.2c0,1-0.6,1.8-1.6,1.8c-1,0-1.8-0.8-1.8-1.8c0-1,0.8-1.8,1.8-1.8    c0.2,0,0.4,0,0.7,0.1c0.3-0.8,1.3-1.5,2.3-1.4c-0.7-0.9-1.8-1.4-3-1.4c-2.6,0-4.6,1.9-4.6,4.5c0,2.4,2,4.4,4.5,4.4L14.2,35.4z     M45.5,56.4c-0.3-0.3-0.7-0.6-1.3-0.6c-0.7,0-1.1,0.3-1.2,0.5c-0.1-0.5,0.4-1.2,1.2-1.2C45.1,55.1,45.5,55.8,45.5,56.4 M45.8,54.5    c-0.2-0.4-0.7-0.8-1.5-0.8c-0.4,0-0.7,0.1-0.8,0.2c0-0.4,0.4-0.7,1.1-0.7C45.4,53.1,45.9,53.8,45.8,54.5 M17.5,23.5    c0-1.2-0.5-1.9-1.2-2.2c0.1,0,0.3-0.1,0.6-0.1c0.6,0,1.2,0.5,1.2,1.2C18.1,22.8,17.9,23.2,17.5,23.5 M40.9,46.2h0.4    c0-1.4-0.4-2.4-1-3.4c-0.3-0.6-0.7-1.2-1-1.6c-0.2-0.3-0.4-0.4-0.7-0.4c-0.2,0-0.3,0.1-0.2,0.4c0.4,0.6,0.8,1.5,1.5,2.8    c-0.5,0.1-0.7,0.4-0.7,0.8C39.3,45.6,40,46.2,40.9,46.2 M27.4,33.8l1.4-0.7c0.5-3,2.2-5,5.3-5.8c-1.6,0.1-3,0.1-5,0.2    c-2.1,0.1-5.6,0.4-8,0.5c-0.5,0-0.8-0.1-0.9-0.5c-0.1-0.4-0.4-1.3-0.4-1.8c0-0.4,0-0.7,0.4-0.9c0.7-0.5,1.4-1.1,1.4-2.2    c0-1.3-1.1-2.1-2.1-2.1c-0.4,0-0.6,0-0.8,0.1c-0.3-0.2-0.5-0.3-1.1-0.3c-0.7,0-1.4,0.5-1.6,0.9c-1.3-0.1-2.3,0.8-2.2,2.1    c0.2-0.2,0.5-0.4,0.9-0.4c0.5,0,0.9,0.4,0.9,0.9c0,0.5-0.1,1.1-0.1,1.8c0,2,1.6,3.1,1.6,4.1c0,0.5-0.4,1-0.9,1    c0.3,1.1,1.3,1.7,2.7,1.7c0.9,0,1.7-0.1,3-0.1C25.5,32.2,27,32.6,27.4,33.8 M19.2,23.3c0.2-0.4,0.2-0.7,0.2-1    c0-0.6-0.3-1.1-0.5-1.3c0.7,0,1.2,0.5,1.2,1.1C20.2,22.7,19.8,23.1,19.2,23.3 M34,39.2c-1.8-0.9-2.6-2.8-2.6-4.5    c0-2.4,1.5-4.1,4-5.1c1.5-0.6,2.8-0.9,4.3-1.5c3-1.1,4-2.5,4-5.2c0-1.5-0.6-2.9-1.5-3.6c0.3,0.4,0.4,0.8,0.4,1.2    c0,0.7-0.4,1.1-1,1.1c-0.4,0-0.7-0.2-0.7-0.6c0.2,0.1,0.3,0.2,0.5,0.2c0.5,0,0.7-0.4,0.7-0.8c0-0.7-0.7-1.1-1.4-1.2    c-0.6-0.1-1.3-0.1-2-0.1c-0.7,0-1.5,0-2.4,0.1c0.6,0.8,2.5,0.6,3,1c-0.5,0-1,0-1.5,0.1c0,0.3-0.1,0.7-0.4,0.7    c-0.6,0-0.8-0.6-1.2-1.7L34,19.5c-0.4,0-0.5,0.2-0.4,0.4l0.2,2.2c0,0.1,0.1,0.1,0.2,0.1c0.1,0,0.2,0,0.2-0.2    c0.1-0.2,0.4-0.6,1-0.6c1,0,1.7,0.9,1.8,1.9c-0.4-0.5-1.1-0.9-2.5-0.9c-1,0-1.9,0.3-3.2,0.3c-1.4,0-2.2-0.5-2.2-1.2    c0-0.3,0-0.5,0.2-0.7c-0.6,0.3-1,0.8-1,1.5c0,1,0.7,2,2.8,2c1.9,0,2.8-1.2,4.5-1.2c0.8,0,1.2,0.4,1.2,0.8c0,0.4-0.4,0.7-1,0.7    c-0.7,0-1.3-0.4-1.5-0.8c0-0.1-0.1-0.1-0.2-0.1c-0.1,0-0.2,0.1-0.2,0.2l0,2.1c0,0.3,0.1,0.4,0.4,0.4c1.3-0.1,2.7-0.3,4-0.4    c2.4-0.2,4-1.8,4-3.6c0-0.3,0-0.5,0-0.8c0.2,0.4,0.3,0.7,0.3,1.1c0,1.6-0.9,2.9-3.7,3.6c-1.5,0.4-2.6,0.6-3.9,0.9    c-3.4,0.8-5.6,3.4-5.6,6.3C29.4,36.4,31.3,38.8,34,39.2 M35.8,39.5c-0.7-0.6-1.7-1.6-1.7-3.4c0-1.9,0.8-3.3,3.3-4.4    c1.6-0.7,2.4-1,3.9-1.5c3.2-1.2,3.8-3.5,3.8-5.8c0-2.2-0.8-3.5-1.8-4.3c0.6,0.7,0.9,1.9,0.9,3.1c0,2.9-1.1,4.5-4.2,5.6    c-1.3,0.4-2.6,0.8-4.1,1.3c-2.6,1-3.9,2.4-3.9,4.8C32.1,37.3,34,39.2,35.8,39.5 M37.4,39.9c-0.5-0.5-1-1.4-1-2.5    c0-1.5,1-2.7,2.7-3.6c1.5-0.7,2.4-1.1,3.7-1.7c2.8-1.4,3.6-3.7,3.6-6.2c0-2.4-0.8-3.7-1.5-4.5c0.5,0.9,0.6,2,0.6,3    c0,2.7-0.8,5-3.9,6.3c-1.6,0.7-2.6,0.9-4,1.5c-2.2,1-3,2.2-3,4C34.7,37.8,35.8,39.4,37.4,39.9 M39.2,40.4    c-0.2-0.4-0.4-0.9-0.4-1.8c0-1.1,0.7-2.1,2.1-2.7c0.9-0.4,1.6-0.8,2.9-1.5c2.9-1.5,3.9-4.3,3.9-7.2c0-1.5-0.4-2.6-0.9-3.6    c0.1,0.8,0.3,1.5,0.3,2.2c0,3-1.1,5.3-3.8,6.7c-1.8,0.9-2.6,1.2-3.7,1.8c-1.5,0.8-2.3,1.8-2.3,3C37.1,38.9,37.9,40.1,39.2,40.4     M42.9,18.9l1.4-2.4h-2c0,0.4-0.4,0.9-0.9,0.9c-0.5,0-0.9-0.4-0.9-0.9h-1.8c0,0.5-0.4,0.9-0.9,0.9c-0.5,0-0.9-0.4-0.9-0.9h-2    l1.2,2.3c0.9-0.1,1.8-0.1,2.7-0.1C40.4,18.7,41.8,18.8,42.9,18.9 M51.6,27.6l1.6-1.2c-0.6-0.7-1.3-1.5-1.3-2.7c0-1,0.7-2,1.5-2.5    c-0.4-0.5-1.1-1-2.2-1c-1.3,0-2.4,1-2.4,2.2c0,0.9,0.6,1.6,1.2,2C50.1,25.7,50.7,26.8,51.6,27.6"/>
	</defs>
	<clipPath id="SVGID_18_">
		<use xlink:href="#SVGID_17_" style="overflow:visible;"/>
	</clipPath>
	<g class="st8">
		<defs>
			<rect id="SVGID_19_" x="-152" y="-27" width="1600" height="4433"/>
		</defs>
		<clipPath id="SVGID_20_">
			<use xlink:href="#SVGID_19_" style="overflow:visible;"/>
		</clipPath>
		<rect x="1.9" y="15.5" class="st9" width="58.5" height="45.2"/>
	</g>
</g>
</svg>